<svg width="1440" height="211" viewBox="0 0 1440 211" fill="none" xmlns="http://www.w3.org/2000/svg">
<path d="M0 211L11.4 187.556C22.9 164.111 46 117.222 69 121.105C91.4 125.281 114 179.497 137 179.716C160 179.497 183 125.281 206 121.105C228.6 117.222 251 164.111 274 160.228C297.1 156.052 320 101.837 343 82.0556C365.7 62.2743 389 78.3924 411 78.1726C434.3 78.3924 457 62.2743 480 78.1726C502.9 93.7778 526 140.667 549 164.111C571.4 187.556 594 187.556 617 160.228C640 132.608 663 78.3924 686 82.0556C708.6 85.7188 731 148.726 754 156.272C777.1 164.111 800 117.222 823 85.9385C845.7 54.9479 869 38.8299 891 62.4941C914.3 85.7188 937 148.726 960 171.95C982.9 195.615 1006 179.497 1029 152.389C1051.4 125.281 1074 85.7188 1097 82.0556C1120 78.3924 1143 109.163 1166 105.5C1188.6 101.837 1211 62.2743 1234 66.4503C1257.1 70.3333 1280 117.222 1303 148.506C1325.7 179.497 1349 195.615 1371 179.716C1394.3 164.111 1417 117.222 1429 93.7778L1440 70.3333V0H1428.6C1417.1 0 1394 0 1371 0C1348.6 0 1326 0 1303 0C1280 0 1257 0 1234 0C1211.4 0 1189 0 1166 0C1142.9 0 1120 0 1097 0C1074.3 0 1051 0 1029 0C1005.7 0 983 0 960 0C937.1 0 914 0 891 0C868.6 0 846 0 823 0C800 0 777 0 754 0C731.4 0 709 0 686 0C662.9 0 640 0 617 0C594.3 0 571 0 549 0C525.7 0 503 0 480 0C457.1 0 434 0 411 0C388.6 0 366 0 343 0C320 0 297 0 274 0C251.4 0 229 0 206 0C182.9 0 160 0 137 0C114.3 0 91 0 69 0C45.7 0 23 0 11 0H0V211Z" fill="white"/>
</svg>
