<svg width="370" height="28" viewBox="0 0 370 28" fill="none" xmlns="http://www.w3.org/2000/svg">
<path d="M0 14.4973L2.80069 12.2504C5.60139 9.96122 11.3056 5.5307 16.7014 6.61724C22.4312 7.74598 28.0069 14.4973 33.6597 16.1852C39.2354 17.873 44.9653 14.4973 50.3611 13.9382C56.0653 13.3369 61.6667 15.6577 67.3194 13.3686C72.8694 11.1216 78.3681 4.37031 84.0208 1.55374C89.6993 -1.22065 95.3264 -0.165747 100.979 3.81122C106.503 7.74598 112.028 14.4973 117.681 15.0564C123.333 15.6577 128.986 9.96122 134.639 7.74598C140.163 5.5307 145.688 6.58559 151.34 6.05814C156.967 5.5307 162.646 3.20992 168.299 4.37031C173.797 5.5307 179.347 9.96122 185 12.8095C190.601 15.6577 196.306 16.7126 201.701 17.873C207.431 19.0334 213.007 20.0883 218.66 17.873C224.235 15.6577 229.965 9.96122 235.361 11.1216C241.065 12.282 246.667 20.0883 252.319 21.8077C257.869 23.4639 263.368 19.0334 269.021 14.4973C274.699 9.96122 280.326 5.5307 285.979 7.18688C291.503 8.90636 297.028 16.7126 302.681 16.7443C308.333 16.7126 313.986 8.90636 319.639 6.61724C325.163 4.37031 330.688 7.74598 336.34 11.6807C341.967 15.6577 347.646 20.0883 353.299 19.0017C358.797 17.873 364.347 11.1216 367.174 7.74598L370 4.37031V28H367.199C364.399 28 358.694 28 353.299 28C347.569 28 341.993 28 336.34 28C330.765 28 325.035 28 319.639 28C313.935 28 308.333 28 302.681 28C297.131 28 291.632 28 285.979 28C280.301 28 274.674 28 269.021 28C263.497 28 257.972 28 252.319 28C246.667 28 241.014 28 235.361 28C229.837 28 224.312 28 218.66 28C213.033 28 207.354 28 201.701 28C196.203 28 190.653 28 185 28C179.399 28 173.694 28 168.299 28C162.569 28 156.993 28 151.34 28C145.765 28 140.035 28 134.639 28C128.935 28 123.333 28 117.681 28C112.131 28 106.632 28 100.979 28C95.3007 28 89.6736 28 84.0208 28C78.4965 28 72.9722 28 67.3194 28C61.6667 28 56.0139 28 50.3611 28C44.8368 28 39.3125 28 33.6597 28C28.0326 28 22.3542 28 16.7014 28C11.2028 28 5.65278 28 2.82639 28H0V14.4973Z" fill="white"/>
</svg>
